<svg version="1.2" xmlns="http://www.w3.org/2000/svg" viewBox="0 0 1080 1080" width="1080" height="1080">
	<title>dino(1)(1)</title>
	<style>
		.s0 { fill: #808080 } 
		.s1 { fill: #939393 } 
		.s2 { fill: #ffffff } 
	</style>
	<path id="log" class="s0" d="m801.4 442.2l-104.1 400.7 205.1 55.1 48-192.3 103.9-80.1-23.2-22.7-70.5 57.9 47.5-163.1-136.7-36.7-20.2 51.3 9.8-53.3z"/>
	<path id="Layer 2" class="s1" d="m906.3 51.8c-26.2-12.4-372.4-16.8-394.5 22-18.7 32.7 4.1 270.6-21.2 305.1-29.2 39.8-232.5 191.2-268 191.1-27.5-0.1-116.8-76.8-123.9-92.1-9-19.6 7.1-88.2-7.1-102.2-13.8-13.8-45.8-18.6-56.6 0-9.7 16.7-14.1 238.7 0 257.9 14.7 20 202.6 205.5 222.9 226.4 18.1 18.6 0 173.4 0 173.4l106.2 3.5c0 0 14.1-51.1 0-66.8-14.4-16-42.5-3.9-42.5-3.9v-49.2c0 0 60.2-74.3 113.2-74.3 53.1 0 70.8 49.5 70.8 49.5v130.9h88.5c0 0 12.3-35.7 1.7-56.7-10-20-54.8-3.4-54.8-3.4l3.5-162.8c0 0 112.4-118.6 127.4-141.6 13.5-20.6-6.2-119.4 3.5-131.2 11.1-13.3 46.9-13.9 66.4-6.8 17.7 6.5 30 37.3 41.6 43.4 15 7.9 38.8-18.6 38-33.6-0.9-16-33.6-29.3-47.8-46.9-16.1-20.1-73.4-0.9-91.1-12.3-11.2-7.2-16.8-61.1 0-81.7 7.9-9.8 151.3 6.4 169.8-6.9 10.7-7.5 12.4-23 0-38.8-11.2-14.4-99 6-121.1-2.7-24-9.5-19.2-48.8-3.6-56.6 5.3-2.7 188.6 3.6 211.4-11.7 12-8 10.3-126.5 8.9-175.9 0 0-20.2-34.9-41.6-45.1z"/>
	<path id="eye" class="s2" d="m613.1 158.9c-14.5 0-26.1-11.6-26.1-26 0-14.5 11.6-26.1 26.1-26.1 14.4 0 26.1 11.6 26.1 26.1 0 14.4-11.7 26-26.1 26z"/>
</svg>